<?xml version="1.0" standalone="no"?>
<!DOCTYPE svg PUBLIC "-//W3C//DTD SVG 20010904//EN"
 "http://www.w3.org/TR/2001/REC-SVG-20010904/DTD/svg10.dtd">
<svg version="1.0" xmlns="http://www.w3.org/2000/svg"
 width="200.000000pt" height="200.000000pt" viewBox="0 0 200.000000 200.000000"
 preserveAspectRatio="xMidYMid meet">
<metadata>
Created by potrace 1.11, written by Peter Selinger 2001-2013
</metadata>
<g transform="translate(0.000000,200.000000) scale(0.100000,-0.100000)"
fill="#000000" stroke="none">
<path d="M947 1955 c-112 -38 -327 -244 -480 -458 -155 -216 -275 -498 -322
-750 -8 -45 -17 -95 -20 -112 -4 -16 -9 -113 -12 -215 -5 -154 -3 -196 11
-242 56 -193 323 -218 416 -38 10 19 35 53 57 75 220 231 581 241 806 23 35
-35 77 -83 93 -108 45 -68 99 -101 177 -107 55 -5 73 -2 109 17 61 31 99 73
119 133 15 44 17 81 14 237 -2 102 -5 194 -8 205 -3 11 -8 45 -13 75 -4 30 -8
57 -9 60 -1 3 -5 23 -10 45 -5 22 -10 42 -10 45 -90 390 -357 806 -680 1056
-85 66 -162 85 -238 59z"/>
</g>
</svg>
